<svg width="32" height="32" viewBox="0 0 32 32" fill="none" xmlns="http://www.w3.org/2000/svg">
<circle cx="16" cy="16" r="16" fill="#213147"/>
<g clip-path="url(#clip0_75_1226)">
<path d="M6.75928 11.8593V20.7056C6.75928 21.2704 7.06113 21.7926 7.55002 22.0741L15.2111 26.4982C15.7 26.7797 16.3019 26.7797 16.7908 26.4982L24.4519 22.0741C24.9408 21.7926 25.2426 21.2704 25.2426 20.7056V11.8593C25.2426 11.2945 24.9408 10.7723 24.4519 10.4908L16.7908 6.0667C16.3019 5.78522 15.7 5.78522 15.2111 6.0667L7.54817 10.4908C7.05928 10.7723 6.75928 11.2945 6.75928 11.8593Z" fill="#213147"/>
<path d="M17.6722 17.9982L16.5796 20.9945C16.55 21.0779 16.55 21.1686 16.5796 21.2519L18.4592 26.4075L20.6333 25.1519L18.024 17.9982C17.9648 17.8334 17.7314 17.8334 17.6722 17.9982Z" fill="#12AAFF"/>
<path d="M19.8629 12.9593C19.8036 12.7945 19.5703 12.7945 19.5111 12.9593L18.4185 15.9556C18.3888 16.0389 18.3888 16.1297 18.4185 16.213L21.4981 24.6537L23.6722 23.3982L19.8629 12.9593Z" fill="#12AAFF"/>
<path d="M16 6.39815C16.0537 6.39815 16.1074 6.41296 16.1556 6.43889L24.4463 11.2259C24.5426 11.2815 24.6019 11.3852 24.6019 11.4944V21.0667C24.6019 21.1778 24.5426 21.2796 24.4463 21.3352L16.1556 26.1222C16.1093 26.15 16.0537 26.163 16 26.163C15.9463 26.163 15.8926 26.1481 15.8444 26.1222L7.5537 21.3389C7.45741 21.2833 7.39815 21.1796 7.39815 21.0704V11.4963C7.39815 11.3852 7.45741 11.2833 7.5537 11.2278L15.8444 6.44074C15.8926 6.41296 15.9463 6.39815 16 6.39815ZM16 5C15.7056 5 15.4093 5.07593 15.1444 5.22963L6.85556 10.0148C6.32593 10.3204 6 10.8852 6 11.4963V21.0685C6 21.6796 6.32593 22.2444 6.85556 22.55L15.1463 27.337C15.4111 27.4889 15.7056 27.5667 16.0019 27.5667C16.2963 27.5667 16.5926 27.4907 16.8574 27.337L25.1482 22.55C25.6778 22.2444 26.0037 21.6796 26.0037 21.0685V11.4963C26.0037 10.8852 25.6778 10.3204 25.1482 10.0148L16.8556 5.22963C16.5907 5.07593 16.2944 5 16 5Z" fill="#9DCCED"/>
<path d="M10.5167 24.6648L11.2797 22.5759L12.8149 23.8519L11.3797 25.163L10.5167 24.6648Z" fill="#213147"/>
<path d="M15.3019 10.8112H13.2001C13.0427 10.8112 12.9019 10.9093 12.8482 11.0575L8.34265 23.4093L10.5167 24.6649L15.4778 11.063C15.5241 10.9408 15.4334 10.8112 15.3019 10.8112Z" fill="white"/>
<path d="M18.9797 10.8112H16.8779C16.7205 10.8112 16.5797 10.9093 16.526 11.0575L11.3816 25.1612L13.5557 26.4167L19.1557 11.063C19.2001 10.9408 19.1094 10.8112 18.9797 10.8112Z" fill="white"/>
</g>
<defs>
<clipPath id="clip0_75_1226">
<rect width="20" height="22.5648" fill="white" transform="translate(6 5)"/>
</clipPath>
</defs>
</svg>
