<svg width="48" height="48" viewBox="0 0 48 48" fill="none" xmlns="http://www.w3.org/2000/svg">
<g clip-path="url(#clip0_36_643)">
<path d="M24 48C37.2548 48 48 37.2548 48 24C48 10.7452 37.2548 0 24 0C10.7452 0 0 10.7452 0 24C0 37.2548 10.7452 48 24 48Z" fill="black"/>
<path d="M24.0534 12.4H23.9467C23.9467 12.4 23.8267 12.4 23.7734 12.4267L7.82671 16.7467C7.53337 16.8267 7.33337 17.08 7.33337 17.3867C7.33337 17.6933 7.53337 17.9467 7.82671 18.0267L17.6534 20.6933L23.76 22.3467C23.76 22.3467 23.88 22.3733 23.9334 22.3733H24.04C24.04 22.3733 24.16 22.3733 24.2134 22.3467L30.32 20.6933L40.1467 18.0267C40.44 17.9467 40.64 17.68 40.64 17.3867C40.64 17.0933 40.44 16.8267 40.1467 16.7467L24.2 12.4267C24.2 12.4267 24.08 12.4 24.0267 12.4" fill="white"/>
<path d="M24.2267 23.6267H23.7867C23.7867 23.6267 23.6667 23.6267 23.6134 23.6L15.4534 21.3867C15.3334 21.36 15.2134 21.36 15.0934 21.3867L7.82671 23.36C7.53337 23.44 7.33337 23.7067 7.33337 24C7.33337 24.2933 7.53337 24.56 7.82671 24.64L17.6667 27.3067L23.7734 28.96C23.7734 28.96 23.8934 28.9867 23.9467 28.9867H24.0534C24.0534 28.9867 24.1734 28.9867 24.2267 28.96L30.3334 27.3067L40.1734 24.64C40.4667 24.56 40.6667 24.2933 40.6667 24C40.6667 23.7067 40.4667 23.44 40.1734 23.36L32.9067 21.3867C32.7867 21.36 32.6667 21.36 32.5467 21.3867L24.3867 23.6C24.3867 23.6 24.2667 23.6267 24.2134 23.6267" fill="white"/>
<path d="M24.2267 30.24H23.7867C23.7867 30.24 23.6667 30.24 23.6133 30.2133L15.4667 28C15.3467 27.9733 15.2267 27.9733 15.1067 28L7.84001 29.9733C7.54668 30.0533 7.34668 30.32 7.34668 30.6133C7.34668 30.9067 7.54668 31.1733 7.84001 31.2533L23.7867 35.5733C23.7867 35.5733 23.9067 35.6 23.96 35.6H24.0667C24.0667 35.6 24.1867 35.6 24.24 35.5733L40.1867 31.2533C40.48 31.1733 40.68 30.92 40.68 30.6133C40.68 30.3067 40.48 30.0533 40.1867 29.9733L32.92 28C32.8 27.9733 32.68 27.9733 32.56 28L24.4133 30.2133C24.4133 30.2133 24.2933 30.24 24.24 30.24" fill="white"/>
<path d="M25.7334 17.9733C25.5734 17.76 25.32 17.6267 25.0934 17.5333C24.8667 17.4267 24.56 17.32 24.1867 17.2133C23.88 17.12 23.64 17.04 23.4667 16.9733C23.2934 16.9067 23.1467 16.8 23.04 16.6667C22.92 16.5333 22.8667 16.36 22.8667 16.1333C22.8667 15.8267 22.96 15.6 23.16 15.4267C23.36 15.2533 23.6134 15.1733 23.92 15.1733C24.2534 15.1733 24.52 15.2533 24.72 15.4267C24.92 15.6 25.04 15.8 25.0667 16.0267H25.88C25.84 15.5733 25.64 15.2 25.3067 14.92C25.0134 14.68 24.6534 14.56 24.2267 14.52V13.7067H23.7867V14.5067C23.5067 14.5333 23.24 14.5867 23.0134 14.7067C22.7334 14.84 22.5067 15.04 22.3467 15.28C22.1867 15.5333 22.1067 15.8133 22.1067 16.1333C22.1067 16.5067 22.1867 16.8 22.3467 17.0133C22.5067 17.2267 22.7067 17.3867 22.9334 17.4933C23.16 17.6 23.4667 17.6933 23.84 17.8C24.1467 17.88 24.3867 17.96 24.5734 18.04C24.7467 18.12 24.9067 18.2267 25.0267 18.36C25.1467 18.5067 25.2134 18.68 25.2134 18.9067C25.2134 19.2 25.1067 19.4267 24.9067 19.6133C24.7067 19.8 24.4267 19.8933 24.0667 19.8933C23.7067 19.8933 23.4134 19.8 23.2267 19.6133C23.04 19.4267 22.92 19.1867 22.8934 18.9067H22.1067C22.1067 19.2267 22.2 19.52 22.3734 19.76C22.5467 20 22.7734 20.2 23.0667 20.3333C23.2934 20.44 23.5467 20.5067 23.8134 20.5333V21.3333H24.2534V20.5333C24.5734 20.5067 24.8534 20.44 25.0934 20.3067C25.3867 20.1467 25.6 19.9467 25.7467 19.68C25.8934 19.4267 25.9734 19.1467 25.9734 18.8667C25.9734 18.4933 25.8934 18.2 25.7334 17.9733Z" fill="black"/>
</g>
<defs>
<clipPath id="clip0_36_643">
<rect width="48" height="48" fill="white"/>
</clipPath>
</defs>
</svg>
